<?xml version="1.0" encoding="iso-8859-1"?>
<!-- Generator: Adobe Illustrator 19.0.0, SVG Export Plug-In . SVG Version: 6.00 Build 0)  -->
<svg version="1.1" id="Capa_1" xmlns="http://www.w3.org/2000/svg" xmlns:xlink="http://www.w3.org/1999/xlink" x="0px" y="0px"
	 viewBox="0 0 511.998 511.998" style="enable-background:new 0 0 511.998 511.998;" xml:space="preserve">
<path style="fill:#00CDCD;" d="M386.215,448.148h-261.66C55.225,447.49-0.495,390.834,0.003,321.503
	c-0.07-53.269,32.991-100.957,82.902-119.57C104.239,106.725,198.709,46.83,293.917,68.163
	c67.009,15.016,119.242,67.487,133.949,134.566c65.764,23.336,100.16,95.557,76.824,161.32
	C486.884,414.259,439.494,447.898,386.215,448.148z M255.386,104.283c-67.677,0.239-125.11,49.691-135.413,116.581l-1.993,13.352
	l-13.153,3.089c-46.403,12.216-74.124,59.735-61.908,106.139c9.845,37.386,43.195,63.771,81.836,64.747h261.46
	c47.111-1.246,84.656-39.767,84.696-86.888c-0.13-39.339-26.913-73.596-65.066-83.201l-13.153-3.089l-1.993-13.352
	C380.606,154.583,323.222,104.801,255.386,104.283z"/>
<polygon style="fill:#6A7D98;" points="321.847,248.664 293.648,220.466 255.386,258.629 217.123,220.466 188.924,248.664 
	227.187,286.827 188.924,325.09 217.123,353.289 255.386,315.026 293.648,353.289 321.847,325.09 283.584,286.827 "/>
<g>
</g>
<g>
</g>
<g>
</g>
<g>
</g>
<g>
</g>
<g>
</g>
<g>
</g>
<g>
</g>
<g>
</g>
<g>
</g>
<g>
</g>
<g>
</g>
<g>
</g>
<g>
</g>
<g>
</g>
</svg>
